<?xml version="1.0" encoding="UTF-8" standalone="no"?>
<!-- Created with Inkscape (http://www.inkscape.org/) -->

<svg
   xmlns:dc="http://purl.org/dc/elements/1.1/"
   xmlns:cc="http://creativecommons.org/ns#"
   xmlns:rdf="http://www.w3.org/1999/02/22-rdf-syntax-ns#"
   xmlns:svg="http://www.w3.org/2000/svg"
   xmlns="http://www.w3.org/2000/svg"
   xmlns:sodipodi="http://sodipodi.sourceforge.net/DTD/sodipodi-0.dtd"
   xmlns:inkscape="http://www.inkscape.org/namespaces/inkscape"
   version="1.1"
   id="svg4801"
   xml:space="preserve"
   width="314.66666"
   height="234.66667"
   viewBox="0 0 314.66666 234.66667"
   sodipodi:docname="sas.svg"
   inkscape:version="0.92.2 (5c3e80d, 2017-08-06)"><metadata
     id="metadata4807"><rdf:RDF><cc:Work
         rdf:about=""><dc:format>image/svg+xml</dc:format><dc:type
           rdf:resource="http://purl.org/dc/dcmitype/StillImage" /><dc:title></dc:title></cc:Work></rdf:RDF></metadata><defs
     id="defs4805"><marker
       inkscape:stockid="Arrow1Mend"
       orient="auto"
       refY="0.0"
       refX="0.0"
       id="Arrow1Mend"
       style="overflow:visible;"
       inkscape:isstock="true"><path
         id="path4866"
         d="M 0.0,0.0 L 5.0,-5.0 L -12.5,0.0 L 5.0,5.0 L 0.0,0.0 z "
         style="fill-rule:evenodd;stroke:#a020f0;stroke-width:1pt;stroke-opacity:1;fill:#a020f0;fill-opacity:1"
         transform="scale(0.4) rotate(180) translate(10,0)" /></marker></defs><sodipodi:namedview
     pagecolor="#ffffff"
     bordercolor="#666666"
     borderopacity="1"
     objecttolerance="10"
     gridtolerance="10"
     guidetolerance="10"
     inkscape:pageopacity="0"
     inkscape:pageshadow="2"
     inkscape:window-width="1853"
     inkscape:window-height="1025"
     id="namedview4803"
     showgrid="false"
     inkscape:zoom="2.6034386"
     inkscape:cx="139.73826"
     inkscape:cy="118.14781"
     inkscape:window-x="67"
     inkscape:window-y="27"
     inkscape:window-maximized="1"
     inkscape:current-layer="g4811" /><g
     id="g4809"
     inkscape:groupmode="layer"
     inkscape:label="ink_ext_XXXXXX"
     transform="matrix(1.3333333,0,0,-1.3333333,0,234.66667)"><g
       id="g4811"
       transform="scale(0.1)"><path
         d="m 1741.45,1197.15 c 3.78,300.97 -237.11,548.05 -538.13,551.83 -300.98,3.83 -548.05,-237.1 -551.84,-538.08 -3.781,-300.978 237.11,-548.091 538.09,-551.88 301.02,-3.79 548.09,237.152 551.88,538.13 z"
         style="fill:#add8e6;fill-opacity:1;fill-rule:evenodd;stroke:none"
         id="path4813"
         inkscape:connector-curvature="0" /><path
         d="m 1741.45,1197.15 c 3.78,300.97 -237.11,548.05 -538.13,551.83 -300.98,3.83 -548.05,-237.1 -551.84,-538.08 -3.781,-300.978 237.11,-548.091 538.09,-551.88 301.02,-3.79 548.09,237.152 551.88,538.13 z"
         style="fill:none;stroke:#000000;stroke-width:15.00000038;stroke-linecap:butt;stroke-linejoin:round;stroke-miterlimit:10;stroke-dasharray:45.00000113,15.00000038;stroke-dashoffset:0;stroke-opacity:1"
         id="path4815"
         inkscape:connector-curvature="0" /><path
         d="m 1511.76,754.02 c 152.5,-121.829 360.51,-147.77 538.24,-67.11 177.73,80.711 295.16,254.379 303.79,449.38 8.63,195 -92.93,378.36 -262.85,474.45 -169.89,96.14 -379.38,88.67 -542.07,-19.22"
         style="fill:#add8e6;fill-opacity:1;fill-rule:evenodd;stroke:none"
         id="path4817"
         inkscape:connector-curvature="0" /><path
         d="m 1511.76,754.02 c 152.5,-121.829 360.51,-147.77 538.24,-67.11 177.73,80.711 295.16,254.379 303.79,449.38 8.63,195 -92.93,378.36 -262.85,474.45 -169.89,96.14 -359.2144,100.1932 -521.9044,-7.6968"
         style="fill:none;stroke:#000000;stroke-width:15.00000038;stroke-linecap:butt;stroke-linejoin:round;stroke-miterlimit:10;stroke-dasharray:45.00000113,15.00000038;stroke-dashoffset:0;stroke-opacity:1"
         id="path4819"
         inkscape:connector-curvature="0"
         sodipodi:nodetypes="ccscc" /><path
         d="M 636.449,1284.02 C 375.859,1280.39 143.98,1117.7 51.8789,873.91 -40.2305,630.078 26.1719,354.73 219.262,179.691 412.379,4.64844 692.891,-34.4883 926.52,81.0508 1160.16,196.602 1299.34,443.281 1277.46,702.969"
         style="fill:#add8e6;fill-opacity:1;fill-rule:evenodd;stroke:none"
         id="path4821"
         inkscape:connector-curvature="0" /><path
         d="M 636.449,1284.02 C 375.859,1280.39 143.98,1117.7 51.8789,873.91 -40.2305,630.078 26.1719,354.73 219.262,179.691 412.379,4.64844 692.891,-34.4883 926.52,81.0508 1160.16,196.602 1288.01,394.062 1266.13,653.75"
         style="fill:none;stroke:#000000;stroke-width:15.00000038;stroke-linecap:butt;stroke-linejoin:round;stroke-miterlimit:10;stroke-dasharray:45.00000113,15.00000038;stroke-dashoffset:0;stroke-opacity:1"
         id="path4823"
         inkscape:connector-curvature="0"
         sodipodi:nodetypes="ccccc" /><path
         d="m 1516.45,1204.02 c 0,176.72 -143.25,320 -320,320 -176.72,0 -320.001,-143.28 -320.001,-320 0,-176.72 143.281,-320 320.001,-320 176.75,0 320,143.28 320,320 z"
         style="fill:#e30000;stroke:#000000;stroke-width:15.00000038;stroke-linecap:butt;stroke-linejoin:round;stroke-miterlimit:10;stroke-dasharray:none;stroke-opacity:1;fill-opacity:1"
         id="path4827"
         inkscape:connector-curvature="0" /><path
         d="m 2076.45,1164.02 c 0,132.54 -107.43,240 -240,240 -132.54,0 -240,-107.46 -240,-240 0,-132.54 107.46,-240 240,-240 132.57,0 240,107.46 240,240 z"
         style="fill:#ffffff;stroke:#000000;stroke-width:15.00000038;stroke-linecap:butt;stroke-linejoin:round;stroke-miterlimit:10;stroke-dasharray:none;stroke-opacity:1;fill-opacity:1"
         id="path4831"
         inkscape:connector-curvature="0" /><path
         d="m 1036.45,644.02 c 0,220.902 -179.071,400 -400.001,400 -220.898,0 -400,-179.098 -400,-400 0,-220.93 179.102,-400 400,-400 220.93,0 400.001,179.07 400.001,400 z"
         style="fill:#b5b5b5;stroke:#000000;stroke-width:15.00000038;stroke-linecap:butt;stroke-linejoin:round;stroke-miterlimit:10;stroke-dasharray:none;stroke-opacity:1;fill-opacity:1"
         id="path4835"
         inkscape:connector-curvature="0" /><path
         d="m 1483.01,639.73556 c 9.41,119.8 -80.04,224.531 -199.81,233.941 -119.8,9.418 -224.53,-80.031 -233.94,-199.801 -9.42,-119.8 80.04,-224.531 199.8,-233.941 119.81,-9.418 224.53,80.031 233.95,199.801 z"
         style="fill:none;stroke:#a020f0;stroke-width:15.00000038;stroke-linecap:butt;stroke-linejoin:round;stroke-miterlimit:10;stroke-dasharray:none;stroke-dashoffset:0;stroke-opacity:1"
         id="path4837"
         inkscape:connector-curvature="0" /><path
         d="m 1296.13,653.75 c 0,40 -60,40 -60,0 0,-40 60,-40 60,0 z"
         style="fill:#a020f0;fill-opacity:1;fill-rule:evenodd;stroke:none"
         id="path4839"
         inkscape:connector-curvature="0" /><path
         d="M 1266.13,653.75 1140.51,814.18"
         style="fill:none;stroke:#a020f0;stroke-width:7.50000019;stroke-linecap:butt;stroke-linejoin:round;stroke-miterlimit:10;stroke-dasharray:none;stroke-opacity:1;marker-end:url(#Arrow1Mend)"
         id="path4841"
         inkscape:connector-curvature="0" /></g></g></svg>